# xmcd CD database file
#
# Track frame offsets:
#	150
#	20400
#	35746
#	56555
#	74807
#	101717
#	115438
#	132336
#	143305
#	162611
#	183026
#	202783
#
# Disc length: 2989 seconds
#
# Revision: 0
# Processed by: cddbd v1.5.2PL0 Copyright (c) Steve Scherf et al.
# Submitted via: CDex 1.70beta2
#
DISCID=ac0bab0c
DTITLE=Lhasa - The Living Road
DYEAR=2003
DGENRE=Jazz
TTITLE0=Con toda palabra
TTITLE1=La marée haute
TTITLE2=Anywhere On This Road
TTITLE3=Abro la ventana
TTITLE4=J'arrive a la ville
TTITLE5=La frontera
TTITLE6=La confession
TTITLE7=Small Song
TTITLE8=My Name
TTITLE9=Pa' llegar a tu lado
TTITLE10=Para el fin del mundo o el ano nuevo
TTITLE11=Soon This Space Will Be Too Small
EXTD=YEAR: 2003
EXTT0=
EXTT1=
EXTT2=
EXTT3=
EXTT4=
EXTT5=
EXTT6=
EXTT7=
EXTT8=
EXTT9=
EXTT10=
EXTT11=
PLAYORDER=
